HIERARCHY
ROOT Hips
{
	OFFSET 0.00000 0.00000 0.00000
	CHANNELS 6 Xposition Yposition Zposition Zrotation Yrotation Xrotation 
	JOINT LHipJoint
	{
		OFFSET 0 0 0
		CHANNELS 3 Zrotation Yrotation Xrotation
		JOINT LeftHip
		{
			OFFSET 1.30186 -1.90722 0.65024
			CHANNELS 3 Zrotation Yrotation Xrotation
			JOINT LeftKnee
			{
				OFFSET 2.56413 -7.04489 0.00000
				CHANNELS 3 Zrotation Yrotation Xrotation
				JOINT LeftAnkle
				{
					OFFSET 2.79321 -7.67428 0.00000
					CHANNELS 3 Zrotation Yrotation Xrotation
					JOINT LeftToe
					{
						OFFSET 0.15723 -0.43198 2.08537
						CHANNELS 3 Zrotation Yrotation Xrotation
						End Site
						{
							OFFSET 0.00000 -0.00000 1.07411
						}
					}
				}
			}
		}
	}
	JOINT RHipJoint
	{
		OFFSET 0 0 0
		CHANNELS 3 Zrotation Yrotation Xrotation
		JOINT RightHip
		{
			OFFSET -1.28627 -1.90723 0.65024
			CHANNELS 3 Zrotation Yrotation Xrotation
			JOINT RightKnee
			{
				OFFSET -2.56567 -7.04913 0.00000
				CHANNELS 3 Zrotation Yrotation Xrotation
				JOINT RightAnkle
				{
					OFFSET -2.75597 -7.57198 0.00000
					CHANNELS 3 Zrotation Yrotation Xrotation
					JOINT RightToe
					{
						OFFSET -0.17500 -0.48081 2.22901
						CHANNELS 3 Zrotation Yrotation Xrotation
						End Site
						{
							OFFSET -0.00000 -0.00000 1.14762
						}
					}
				}
			}
		}
	}
	JOINT lowerback
	{
		OFFSET 0 0 0
		CHANNELS 3 Zrotation Yrotation Xrotation
		JOINT Chest
		{
			OFFSET -0.04522 2.07467 -0.16566
			CHANNELS 3 Zrotation Yrotation Xrotation
			JOINT Chest2
			{
				OFFSET -0.01178 2.08825 -0.05393
				CHANNELS 3 Zrotation Yrotation Xrotation
				JOINT lowerneck
				{
					OFFSET 0 0 0
					CHANNELS 3 Zrotation Yrotation Xrotation
					JOINT Neck
					{
						OFFSET -0.05182 1.80489 0.16014
						CHANNELS 3 Zrotation Yrotation Xrotation
						JOINT Head
						{
							OFFSET 0.14739 1.78840 -0.33342
							CHANNELS 3 Zrotation Yrotation Xrotation
							End Site
							{
								OFFSET 0.04364 1.83899 -0.13460
							}
						}
					}
				}
				JOINT LeftCollar
				{
					OFFSET 0 0 0
					CHANNELS 3 Zrotation Yrotation Xrotation
					JOINT LeftShoulder
					{
						OFFSET 3.01264 1.29090 -0.06579
CHANNELS 3 Zrotation Xrotation Yrotation
						JOINT LeftElbow
						{
OFFSET 0 -5.556800 0.000000
CHANNELS 3 Zrotation Xrotation Yrotation
							JOINT LeftWrist
							{
OFFSET 0 -3.639790 -0.000000
CHANNELS 3 Zrotation Xrotation Yrotation
								JOINT lhand
								{
									OFFSET 0 0 0
CHANNELS 3 Zrotation Xrotation Yrotation
									JOINT LFingers
									{
OFFSET 0 -0.569420 -0.000000
CHANNELS 3 Zrotation Xrotation Yrotation
										End Site
										{
OFFSET 0 -0.459080 -0.000000
										}
									}
								}
								JOINT LThumb
								{
OFFSET 0 0.000000 0.000000
CHANNELS 3 Zrotation Xrotation Yrotation
									End Site
									{
OFFSET 0 -0.466090 0.466090
									}
								}
							}
						}
					}
				}
				JOINT RightCollar
				{
					OFFSET 0 0 0
					CHANNELS 3 Zrotation Yrotation Xrotation
					JOINT RightShoulder
					{
						OFFSET -3.15796 1.37283 -0.36748
CHANNELS 3 Zrotation Xrotation Yrotation
						JOINT RightElbow
						{
OFFSET 0 -5.343390 0.000000
CHANNELS 3 Zrotation Xrotation Yrotation
							JOINT RightWrist
							{
OFFSET 0 -3.651010 -0.000000
CHANNELS 3 Zrotation Xrotation Yrotation
								JOINT rhand
								{
									OFFSET 0 0 0
CHANNELS 3 Zrotation Xrotation Yrotation
									JOINT RFingers
									{
OFFSET 0 -0.694250 -0.000000
CHANNELS 3 Zrotation Xrotation Yrotation
										End Site
										{
OFFSET 0 -0.559720 -0.000000
										}
									}
								}
								JOINT RThumb
								{
OFFSET 0 0.000000 0.000000
CHANNELS 3 Zrotation Xrotation Yrotation
									End Site
									{
OFFSET 0 -0.568270 0.568270
									}
								}
							}
						}
					}
				}
			}
		}
	}
}
MOTION
Frames: 8
Frame Time: 0.008333333333333333
15.928300 18.218300 -15.580600 2.990900 -2.145500 -0.027400 0.000000 0.000000 0.000000 -28.951700 -0.605800 -1.596500 1.184200 6.906200 19.437700 0.734200 -3.150400 -15.426500 0.039900 -1.289300 -3.545100 0.000000 0.000000 0.000000 7.093700 19.189400 -44.011600 -4.417300 -12.695900 38.240400 -0.171700 -2.923600 -9.471300 -0.121300 2.245100 -6.183400 -5.643300 1.380600 2.985400 -0.907500 1.669900 1.096300 2.167200 0.830100 -0.679100 -3.356000 -3.950400 -12.488100 3.525900 -5.362100 15.678500 1.165800 -2.468500 7.040300 0.000000 -0.000000 0.000000 -4.069900 5.038000 5.328500 7.147500 -12.161800 0.762400 21.182500 16.661500 -19.645000 0.000000 0.000000 0.000000 -7.125000 0.000000 0.000000 -7.207900 50.789500 1.032900 0.000000 -0.000000 0.000000 -5.930300 -45.467600 14.825400 -18.571500 -28.882800 -4.822100 -18.106300 -20.462100 -28.884900 0.000000 0.000000 0.000000 7.125000 0.000000 -0.000000 7.335400 0.064800 7.387900
15.929552 18.223067 -15.525978 3.078367 -1.972141 -0.050994 0.000000 0.000000 0.000000 -29.081952 -0.477770 -1.046081 1.115600 6.704924 18.845951 0.721070 -3.003746 -15.303924 0.059212 -1.540107 -4.236881 0.000000 0.000000 0.000000 6.901837 19.100074 -44.250287 -4.339004 -12.597363 37.880794 -0.176508 -2.950830 -9.591492 -0.126714 2.293864 -6.318500 -5.692710 1.355915 3.016993 -0.907500 1.630994 1.038083 2.194794 0.813697 -0.754932 -3.479788 -3.990801 -12.119242 3.564725 -5.404763 15.487647 1.201999 -2.499164 6.920714 0.000000 0.000000 0.000000 -4.191183 5.449238 6.701113 7.008360 -11.932728 0.733756 21.550590 18.000136 -19.451764 0.000000 0.000000 0.000000 -7.125000 0.000000 0.000000 -6.789713 50.648784 0.951129 0.000000 0.000000 0.000000 -6.197914 -45.582297 14.718177 -18.696944 -29.039959 -4.883065 -18.068283 -20.462221 -28.852458 0.000000 0.000000 0.000000 7.125000 0.000000 0.000000 7.354186 0.104271 7.402040
15.930805 18.227835 -15.471357 3.165835 -1.798781 -0.074588 0.000000 0.000000 0.000000 -29.212204 -0.349741 -0.495663 1.046999 6.503648 18.254203 0.707940 -2.857091 -15.181349 0.078523 -1.790915 -4.928661 0.000000 0.000000 0.000000 6.709974 19.010748 -44.488974 -4.260707 -12.498826 37.521187 -0.181315 -2.978060 -9.711684 -0.132127 2.342627 -6.453600 -5.742120 1.331230 3.048587 -0.907500 1.592088 0.979865 2.222387 0.797295 -0.830764 -3.603575 -4.031201 -11.750384 3.603550 -5.447426 15.296794 1.238198 -2.529828 6.801128 0.000000 0.000000 0.000000 -4.312466 5.860477 8.073725 6.869220 -11.703656 0.705112 21.918681 19.338771 -19.258527 0.000000 0.000000 0.000000 -7.125000 0.000000 0.000000 -6.371525 50.508069 0.869358 0.000000 0.000000 0.000000 -6.465528 -45.696995 14.610953 -18.822388 -29.197117 -4.944029 -18.030266 -20.462342 -28.820017 0.000000 0.000000 0.000000 7.125000 0.000000 0.000000 7.372973 0.143743 7.416180
15.931803 18.232750 -15.417647 3.274844 -1.648956 -0.092521 0.000000 0.000000 0.000000 -29.370930 -0.276539 0.027299 0.986901 6.320605 17.718406 0.699431 -2.676174 -15.117375 0.102223 -2.045072 -5.630916 0.000000 0.000000 0.000000 6.464852 18.996265 -44.692190 -4.173442 -12.386634 37.115339 -0.181967 -3.037708 -9.770517 -0.124714 2.269034 -6.250167 -5.841482 1.307372 3.065572 -0.912334 1.553649 0.921139 2.273261 0.781125 -0.900045 -3.697214 -4.066683 -11.389540 3.650898 -5.491828 15.127017 1.272001 -2.558648 6.689578 0.000000 0.000000 0.000000 -4.434809 6.485898 8.881283 6.865667 -11.697842 0.704348 22.086943 20.016435 -19.179888 0.000000 0.000000 0.000000 -7.125000 0.000000 0.000000 -6.183062 50.453964 0.833850 0.000000 0.000000 0.000000 -6.742217 -45.752051 14.616949 -18.996003 -29.412815 -5.029334 -17.928516 -20.558869 -28.766288 0.000000 0.000000 0.000000 7.125000 0.000000 0.000000 7.427060 0.215696 7.461975
15.932570 18.237800 -15.364762 3.403358 -1.520442 -0.105328 0.000000 0.000000 0.000000 -29.555439 -0.252986 0.525399 0.934501 6.154074 17.233275 0.695109 -2.464232 -15.106467 0.129898 -2.302263 -6.342654 0.000000 0.000000 0.000000 6.171503 19.049554 -44.863287 -4.078056 -12.262079 36.667619 -0.178857 -3.126711 -9.773790 -0.105685 2.084645 -5.740189 -5.986076 1.284263 3.069329 -0.921545 1.515632 0.861952 2.345214 0.765167 -0.963393 -3.763552 -4.097711 -11.035953 3.705964 -5.537804 14.976322 1.303635 -2.585797 6.585304 0.000000 0.000000 0.000000 -4.558111 7.305264 9.177178 6.984889 -11.894189 0.728831 22.074257 20.095580 -19.205017 0.000000 0.000000 0.000000 -7.125000 0.000000 0.000000 -6.202616 50.478285 0.840233 0.000000 0.000000 0.000000 -7.027122 -45.753102 14.725465 -19.213238 -29.681519 -5.136678 -17.769054 -20.742692 -28.693284 0.000000 0.000000 0.000000 7.125000 0.000000 0.000000 7.513114 0.317061 7.536434
15.933156 18.242812 -15.311944 3.529635 -1.392174 -0.113481 0.000000 0.000000 0.000000 -29.736435 -0.233833 1.017892 0.882368 5.987815 16.749122 0.690724 -2.254178 -15.094746 0.156032 -2.545312 -7.015250 0.000000 0.000000 0.000000 5.876948 19.108536 -45.037171 -3.982390 -12.136863 36.217944 -0.175509 -3.219203 -9.775145 -0.087109 1.903622 -5.239549 -6.129588 1.260325 3.069474 -0.931452 1.476870 0.804113 2.415972 0.748720 -1.023193 -3.823343 -4.127480 -10.700176 3.758935 -5.582678 14.836442 1.333239 -2.611907 6.487284 0.000000 0.000000 0.000000 -4.683574 8.151174 9.410612 7.121405 -12.118601 0.757329 22.052422 20.105002 -19.224763 0.000000 0.000000 0.000000 -7.125000 0.000000 0.000000 -6.229628 50.495454 0.846482 0.000000 0.000000 0.000000 -7.309499 -45.760210 14.835179 -19.429294 -29.948581 -5.243530 -17.613597 -20.932427 -28.626524 0.000000 0.000000 0.000000 7.125000 0.000000 0.000000 7.597450 0.411413 7.610073
15.930247 18.247095 -15.260392 3.613022 -1.268629 -0.032438 0.000000 0.000000 0.000000 -29.850082 -0.299040 1.402910 0.835342 5.826778 16.283706 0.685148 -2.080293 -15.067435 0.152638 -2.517314 -6.937599 0.000000 0.000000 0.000000 5.559277 19.276643 -45.264465 -3.881348 -11.998975 35.730792 -0.167631 -3.378584 -9.739754 -0.077211 1.787107 -4.917879 -6.252366 1.220490 3.000389 -0.954682 1.423824 0.772116 2.463806 0.722904 -1.014992 -3.757651 -4.133137 -10.705752 3.771742 -5.606434 14.903830 1.323947 -2.618088 6.509141 0.000000 0.000000 0.000000 -4.850429 9.505849 8.446895 7.589366 -12.880921 0.862774 21.855226 18.778083 -19.141336 0.000000 0.000000 0.000000 -7.125000 0.000000 0.000000 -6.399594 50.375545 0.850159 0.000000 0.000000 0.000000 -7.543419 -45.883432 14.967855 -19.622773 -30.184158 -5.340936 -17.534897 -21.235472 -28.679449 0.000000 0.000000 0.000000 7.125000 0.000000 0.000000 7.648880 0.371335 7.668007
15.927338 18.251377 -15.208841 3.696409 -1.145083 0.048606 0.000000 0.000000 0.000000 -29.963730 -0.364247 1.787929 0.788315 5.665741 15.818290 0.679573 -1.906409 -15.040124 0.149244 -2.489316 -6.859949 0.000000 0.000000 0.000000 5.241607 19.444750 -45.491759 -3.780306 -11.861088 35.243641 -0.159753 -3.537964 -9.704363 -0.067313 1.670591 -4.596209 -6.375143 1.180655 2.931304 -0.977913 1.370777 0.740119 2.511641 0.697088 -1.006791 -3.691960 -4.138793 -10.711327 3.784549 -5.630189 14.971218 1.314655 -2.624269 6.530997 0.000000 0.000000 0.000000 -5.017283 10.860524 7.483177 8.057327 -13.643241 0.968220 21.658030 17.451163 -19.057908 0.000000 0.000000 0.000000 -7.125000 0.000000 0.000000 -6.569559 50.255636 0.853835 0.000000 0.000000 0.000000 -7.777339 -46.006654 15.100531 -19.816252 -30.419734 -5.438342 -17.456196 -21.538518 -28.732374 0.000000 0.000000 0.000000 7.125000 0.000000 0.000000 7.700310 0.331258 7.725942
